<svg xmlns="http://www.w3.org/2000/svg" width="3000" height="3000" fill="none" viewBox="0 0 3000 3000" id="business-data-analysis">
    <g clip-path="url(#clip0_101_35959)">
        <path fill="#F1F1F1" d="M1191.1 714.624H1965.22V1057.02H1191.1V714.624Z"></path>
        <path fill="#F15846" d="M2672.35 2442.7C2643.81 2479.8 2590.2 2476.55 2563.95 2469.67 2562.09 2469.18 2561 2467.24 2561.41 2465.36 2588.74 2339.87 2688.98 2325.58 2752.87 2336.57 2757.07 2337.29 2757.29 2347.4 2753.66 2349.64 2727.63 2365.72 2701.1 2405.32 2672.35 2442.7zM2450.74 2429.78C2470.31 2463.72 2522.63 2466.15 2552.65 2462.55 2556.94 2462.03 2559.63 2457.72 2558.45 2453.56 2523.27 2329.01 2434.61 2314.35 2379.94 2325.04 2373.12 2326.37 2372.68 2335.7 2378.57 2339.38 2408.09 2357.8 2428.3 2390.87 2450.74 2429.78z"></path>
        <path fill="#3E3D3D" fill-rule="evenodd" d="M2553.25 2549.44V2154.94H2568.14V2549.44H2553.25Z" clip-rule="evenodd"></path>
        <path fill="#F15846" fill-rule="evenodd" d="M2851.07 966.25C2792.15 838.984 2657.97 756.208 2510.28 769.482C2322.3 786.377 2183.61 952.46 2200.5 1140.44C2217.4 1328.42 2383.48 1467.11 2571.46 1450.21C2614.25 1446.37 2654.48 1434.79 2690.91 1416.99L2549.54 1113.25L2851.07 966.25Z" clip-rule="evenodd"></path>
        <path fill="#F1F1F1" fill-rule="evenodd" d="M2734.87 1388.98L2611.49 1140.3L2863.8 1007.7C2870.93 1030.53 2875.75 1054.47 2877.98 1079.26C2889.28 1204.99 2830.97 1320.93 2734.87 1388.98Z" clip-rule="evenodd"></path>
        <path fill="#fff" d="M1135.27 658.797H1909.39V1001.2H1135.27V658.797Z"></path>
        <path fill="#3E3D3D" fill-rule="evenodd" d="M1127.83 651.354H1916.83V1008.64H1127.83V651.354ZM1142.71 666.241V993.754H1901.95V666.241H1142.71Z" clip-rule="evenodd"></path>
        <path fill="#3E3D3D" fill-rule="evenodd" d="M1771.69 781.615H1280.42V766.728H1771.69V781.615ZM1771.69 904.432H1280.42V889.545H1771.69V904.432Z" clip-rule="evenodd"></path>
        <path fill="#F1F1F1" fill-rule="evenodd" d="M793.242 1664.31C801.619 1649.8 820.172 1644.83 834.682 1653.21L920.76 1702.91C935.269 1711.28 940.24 1729.84 931.863 1744.34C925.001 1756.23 927.099 1771.14 936.031 1781.56C961.064 1810.76 980.098 1844.13 992.604 1879.68C997.163 1892.65 1009.05 1901.92 1022.79 1901.92C1039.57 1901.92 1053.18 1915.53 1053.18 1932.31L1053.18 2031.64C1053.18 2048.4 1039.59 2061.99 1022.82 2061.99C1009.11 2061.99 997.243 2071.25 992.673 2084.18C986.449 2101.8 978.525 2119.1 968.845 2135.87C959.165 2152.63 948.147 2168.14 936.002 2182.34C927.085 2192.77 924.999 2207.67 931.859 2219.55C940.241 2234.07 935.267 2252.64 920.748 2261.02L834.734 2310.68C820.199 2319.07 801.612 2314.09 793.219 2299.56C786.348 2287.66 772.371 2282 758.865 2284.53C721.82 2291.48 683.41 2291.68 645.605 2284.6C632.116 2282.08 618.151 2287.72 611.289 2299.6C602.912 2314.11 584.359 2319.08 569.849 2310.71L483.771 2261.01C469.261 2252.63 464.29 2234.08 472.667 2219.57C479.529 2207.69 477.431 2192.77 468.499 2182.35C443.466 2153.15 424.433 2119.79 411.926 2084.23C407.366 2071.27 395.482 2061.99 381.74 2061.99C364.955 2061.99 351.349 2048.38 351.349 2031.6L351.349 1932.28C351.349 1915.51 364.939 1901.92 381.703 1901.92C395.422 1901.92 407.287 1892.67 411.857 1879.73C418.081 1862.11 426.005 1844.81 435.685 1828.05C445.366 1811.28 456.387 1795.77 468.534 1781.57C477.45 1771.14 479.536 1756.24 472.677 1744.36C464.296 1729.84 469.27 1711.28 483.787 1702.9L569.804 1653.23C584.339 1644.84 602.926 1649.82 611.318 1664.36C618.188 1676.26 632.165 1681.91 645.67 1679.38C682.714 1672.43 721.123 1672.23 758.925 1679.31C772.415 1681.84 786.379 1676.2 793.242 1664.31ZM853.022 2069C804.951 2152.26 698.486 2180.78 615.226 2132.71C531.965 2084.64 503.438 1978.18 551.508 1894.92C599.579 1811.66 706.044 1783.13 789.305 1831.2C872.565 1879.27 901.093 1985.74 853.022 2069Z" clip-rule="evenodd"></path>
        <path fill="#F15846" d="M1499.44 1795.02C1336.35 1779.56 1151.44 1788.58 1079.37 1795.02C1073.19 1812.19 1060.83 1847.82 1060.83 1852.98C1060.83 1859.42 1097.9 2039.73 1097.9 2065.49C1097.9 2086.1 1320.29 2121.3 1431.48 2136.33C1522.09 2029 1662.52 1810.47 1499.44 1795.02Z"></path>
        <path fill="#EFCB96" d="M1112.94 1548.29H1455.34V1965.13H1112.94V1548.29zM2298.89 1647.46C2314.97 1691.82 2299.93 1718.38 2290.4 1726.12L2339.67 1809.97 2471.03 1844.06C2481.22 1825.47 2511.79 1779.17 2552.55 1742.7 2603.51 1697.11 2629.83 1609.6 2630.96 1570.69 2631.86 1539.56 2610.76 1530.32 2600.1 1529.6 2602.36 1508.62 2581.03 1497.69 2570.09 1494.85 2561.7 1470.13 2534.69 1467.29 2522.24 1468.96L2566.84 1351.1C2570.8 1340.65 2566.42 1328.88 2556.59 1323.56L2544.21 1316.86C2533.9 1311.28 2521.03 1314.63 2514.74 1324.52L2368.8 1554.11 2312.38 1444.62C2305.47 1431.23 2289.66 1425.1 2275.54 1430.35L2270.15 1432.35C2256.26 1437.51 2248.26 1452.09 2251.53 1466.55 2264.16 1522.37 2285.12 1609.5 2298.89 1647.46z"></path>
        <path fill="#F15846" d="M535.616 2452.88C492.133 2607.99 510.768 2713.47 541.828 2750.7C553.646 2764.87 600.597 2813.28 655.944 2869.51H1844.6C1845.68 2717.76 1849.41 2549.23 1852.52 2440.47C1941.56 2500.44 2052.54 2604.03 2107.21 2594.1C2161.87 2584.17 2196.24 2532.05 2206.6 2507.24L2501.15 1853.48C2451.45 1754.2 2319.26 1728.18 2277.84 1715.77L2043.37 2069.34C2001.96 2025.9 1956.88 1976.35 1852.52 1906.86C1748.16 1837.37 1572.99 1807.59 1504.66 1801.38C1486.02 1846.88 1427.63 1937.89 1293.46 1937.89C1159.28 1937.89 1100.89 1846.88 1082.26 1801.38C883.478 1857.22 753.03 1894.45 684.7 1987.52C616.37 2080.59 579.098 2297.76 535.616 2452.88Z"></path>
        <path fill="#EFCB96" d="M1507.11 1182.36C1591.99 1422.83 1557.04 1595.41 1507.11 1630.17H1113.87L1045.21 1587.23L964.07 1433.87L1082.66 1182.36C1188.77 1082.16 1422.22 941.886 1507.11 1182.36Z"></path>
        <path fill="#3E3D3D" d="M1113.31 1650.32C1050.11 1637.9 939.924 1576.16 935.336 1434.26C929.086 1240.97 947.837 1085.09 1079.09 1072.62C1085.34 1024.81 1121.6 926.709 1216.6 916.733C1335.36 904.262 1485.37 916.733 1560.37 879.321C1635.38 841.909 1654.13 879.321 1679.13 904.262C1704.13 929.203 1722.88 1153.68 1497.87 1178.62C1443.68 1184.62 1401.09 1185.93 1366.61 1185.15C1314.52 1185.05 1207.85 1201.06 1197.85 1265.91C1185.35 1346.97 1197.85 1428.03 1172.85 1428.03C1147.85 1428.03 1166.6 1384.38 1116.6 1346.97C1089.51 1344.89 1035.34 1358.19 1035.34 1428.03C1035.34 1481.62 1074.61 1501.92 1105.11 1507.53C1117.91 1509.88 1129.1 1520.19 1129.1 1533.2V1636.52C1129.1 1645.15 1121.79 1651.99 1113.31 1650.32Z"></path>
        <path fill="#3E3D3D" fill-rule="evenodd" d="M-3.58179 2869.51C-3.58179 2865.4 -0.24923 2862.07 3.86169 2862.07H2962.64C2966.75 2862.07 2970.09 2865.4 2970.09 2869.51C2970.09 2873.62 2966.75 2876.95 2962.64 2876.95H3.86169C-0.24923 2876.95 -3.58179 2873.62 -3.58179 2869.51Z" clip-rule="evenodd"></path>
        <path fill="#F1F1F1" d="M1098.05 2780.19H1522.33L1552.11 2869.51H1127.83L1098.05 2780.19Z"></path>
        <path fill="#F1F1F1" d="M194.988 2246.4C188.687 2222.78 206.495 2199.6 230.948 2199.6H1002.47C1019.33 2199.6 1034.08 2210.93 1038.43 2227.22L1209.71 2869.51H361.149L194.988 2246.4Z"></path>
        <path fill="#F15846" d="M2631.41 2147.49C2642.79 2204.38 2593.92 2268.07 2564.66 2296.36C2562.32 2298.62 2558.77 2298.99 2556.07 2297.18C2512.4 2267.93 2462.92 2182.41 2508.59 2117.72C2527.57 2090.84 2541.63 2057.18 2550.45 2028.39C2552.93 2020.32 2574.68 2018.3 2578.76 2025.7C2596.42 2057.76 2621.43 2097.62 2631.41 2147.49Z"></path>
        <path fill="#F1F1F1" fill-rule="evenodd" d="M2030.05 1257.64C2034.59 1250.11 2044.36 1247.69 2051.89 1252.23L2096.52 1279.13C2104.04 1283.67 2106.46 1293.45 2101.93 1300.97 2098.21 1307.13 2099.17 1314.97 2103.75 1320.52 2116.58 1336.08 2126.22 1353.76 2132.43 1372.52 2134.69 1379.36 2140.83 1384.34 2148.03 1384.48 2156.83 1384.65 2163.83 1391.91 2163.66 1400.71L2162.68 1452.78C2162.51 1461.57 2155.25 1468.56 2146.46 1468.39 2139.27 1468.26 2132.96 1472.99 2130.44 1479.73 2127 1488.9 2122.67 1497.89 2117.43 1506.58 2112.19 1515.28 2106.26 1523.3 2099.76 1530.62 2094.98 1536 2093.74 1543.79 2097.21 1550.09 2101.46 1557.78 2098.67 1567.47 2090.98 1571.72L2045.39 1596.9C2037.69 1601.15 2028 1598.36 2023.74 1590.65 2020.26 1584.35 2012.99 1581.24 2005.88 1582.44 1986.39 1585.71 1966.25 1585.44 1946.51 1581.35 1939.46 1579.89 1932.08 1582.71 1928.37 1588.87 1923.83 1596.4 1914.06 1598.82 1906.53 1594.28L1861.9 1567.38C1854.38 1562.84 1851.96 1553.07 1856.49 1545.54 1860.21 1539.38 1859.25 1531.54 1854.67 1525.99 1841.84 1510.44 1832.19 1492.76 1825.99 1473.99 1823.73 1467.15 1817.59 1462.17 1810.39 1462.03 1801.59 1461.87 1794.59 1454.6 1794.76 1445.8L1795.74 1393.73C1795.91 1384.94 1803.17 1377.95 1811.96 1378.12 1819.15 1378.26 1825.46 1373.52 1827.98 1366.79 1831.42 1357.61 1835.74 1348.62 1840.99 1339.93 1846.23 1331.23 1852.16 1323.21 1858.67 1315.89 1863.44 1310.51 1864.69 1302.72 1861.21 1296.42 1856.96 1288.73 1859.75 1279.05 1867.44 1274.8L1913.03 1249.62C1920.73 1245.36 1930.43 1248.16 1934.68 1255.86 1938.16 1262.16 1945.44 1265.27 1952.54 1264.07 1972.03 1260.8 1992.17 1261.08 2011.91 1265.16 2018.96 1266.62 2026.34 1263.8 2030.05 1257.64zM2057.38 1470.38C2031.35 1513.55 1975.26 1527.45 1932.09 1501.42 1888.91 1475.4 1875.02 1419.3 1901.04 1376.13 1927.07 1332.96 1983.16 1319.06 2026.33 1345.09 2069.51 1371.11 2083.4 1427.21 2057.38 1470.38zM311.33 1520C314.91 1514.07 322.624 1512.15 328.562 1515.73L363.785 1536.97C369.722 1540.55 371.634 1548.26 368.054 1554.2 365.122 1559.06 365.873 1565.25 369.487 1569.63 379.615 1581.91 387.229 1595.86 392.124 1610.67 393.909 1616.07 398.753 1620 404.438 1620.1 411.381 1620.24 416.904 1625.97 416.773 1632.91L415.995 1674.01C415.864 1680.94 410.135 1686.46 403.2 1686.33 397.525 1686.22 392.544 1689.96 390.552 1695.27 387.84 1702.51 384.426 1709.61 380.29 1716.47 376.154 1723.33 371.474 1729.66 366.338 1735.44 362.568 1739.68 361.588 1745.83 364.333 1750.8 367.687 1756.87 365.484 1764.52 359.412 1767.87L323.438 1787.74C317.358 1791.1 309.708 1788.89 306.349 1782.81 303.6 1777.84 297.861 1775.39 292.254 1776.33 276.874 1778.92 260.981 1778.7 245.396 1775.47 239.835 1774.32 234.014 1776.55 231.082 1781.41 227.503 1787.35 219.788 1789.26 213.851 1785.68L178.627 1764.45C172.69 1760.87 170.779 1753.15 174.358 1747.21 177.29 1742.35 176.539 1736.17 172.925 1731.78 162.797 1719.51 155.183 1705.56 150.287 1690.75 148.502 1685.35 143.658 1681.42 137.973 1681.31 131.029 1681.18 125.506 1675.44 125.637 1668.5L126.415 1627.41C126.546 1620.47 132.275 1614.96 139.21 1615.09 144.886 1615.19 149.867 1611.46 151.859 1606.14 154.572 1598.9 157.985 1591.81 162.121 1584.94 166.258 1578.08 170.939 1571.75 176.075 1565.97 179.845 1561.73 180.825 1555.58 178.08 1550.61 174.726 1544.54 176.929 1536.9 183.001 1533.54L218.976 1513.67C225.056 1510.31 232.706 1512.52 236.064 1518.6 238.814 1523.58 244.552 1526.02 250.159 1525.08 265.539 1522.5 281.431 1522.72 297.016 1525.94 302.577 1527.09 308.398 1524.87 311.33 1520zM332.896 1687.9C312.357 1721.97 268.087 1732.94 234.017 1712.4 199.947 1691.86 188.978 1647.59 209.517 1613.52 230.056 1579.45 274.326 1568.48 308.396 1589.02 342.466 1609.56 353.435 1653.83 332.896 1687.9z" clip-rule="evenodd"></path>
        <path fill="#F1F1F1" d="M338.818 688.571H465.357V1030.97H338.818V688.571Z"></path>
        <path fill="#F15846" d="M554.678 815.11H681.218V1030.97H554.678V815.11Z"></path>
        <path fill="#F1F1F1" d="M770.539 763.006H897.078V1030.97H770.539V763.006Z"></path>
        <path fill="#F1F1F1" fill-rule="evenodd" d="M852.418 1205.89H346.262V1191.01H852.418V1205.89ZM714.714 1373.37H346.262V1358.48H714.714V1373.37Z" clip-rule="evenodd"></path>
        <path fill="#3E3D3D" fill-rule="evenodd" d="M3003.58 1808.81H2653.74V1793.93H3003.58V1808.81zM2839.82 1942.8H2653.74V1927.91H2839.82V1942.8zM2021.04 777.893C2021.04 773.782 2024.38 770.449 2028.49 770.449H2210.67L2343.16 933.229C2345.76 936.417 2345.28 941.105 2342.09 943.7 2338.9 946.295 2334.21 945.815 2331.62 942.626L2203.59 785.336H2028.49C2024.38 785.336 2021.04 782.004 2021.04 777.893z" clip-rule="evenodd"></path>
        <path fill="#3E3D3D" d="M2065.71 777.893C2065.71 798.448 2049.04 815.111 2028.49 815.111 2007.93 815.111 1991.27 798.448 1991.27 777.893 1991.27 757.339 2007.93 740.676 2028.49 740.676 2049.04 740.676 2065.71 757.339 2065.71 777.893zM2832.38 1656.22C2832.38 1676.78 2815.72 1693.44 2795.16 1693.44 2774.61 1693.44 2757.95 1676.78 2757.95 1656.22 2757.95 1635.67 2774.61 1619.01 2795.16 1619.01 2815.72 1619.01 2832.38 1635.67 2832.38 1656.22z"></path>
        <path fill="#3E3D3D" fill-rule="evenodd" d="M2795.16 1217.06C2799.28 1217.06 2802.61 1220.39 2802.61 1224.5V1656.22C2802.61 1660.33 2799.28 1663.67 2795.16 1663.67 2791.05 1663.67 2787.72 1660.33 2787.72 1656.22V1224.5C2787.72 1220.39 2791.05 1217.06 2795.16 1217.06zM1857.29 2229.37L1857.29 2437.79 1842.4 2437.79 1842.4 2229.37 1857.29 2229.37z" clip-rule="evenodd"></path>
        <path fill="#F1F1F1" fill-rule="evenodd" d="M2132.69 491.319H844.974V454.102H2132.69V491.319Z" clip-rule="evenodd"></path>
    </g>
    <defs>
        <clipPath id="clip0_101_35959">
            <rect width="3000" height="3000" fill="#fff"></rect>
        </clipPath>
    </defs>
</svg>